ply
format ascii 1.0
comment Created by Open3D
element vertex 61
property float x
property float y
property float z
property uchar red
property uchar green
property uchar blue
element face 77
property list uchar uint vertex_indices
end_header
19.775 41.775 3.9972 102 0 204
19.775 41.825 3.99546 102 0 204
19.775 41.875 3.98741 102 0 204
19.775 41.925 3.98907 102 0 204
19.775 41.975 3.99209 102 0 204
19.825 41.825 3.9963 102 0 204
19.825 41.875 3.99133 102 0 204
19.825 41.925 3.98622 102 0 204
19.825 41.975 3.98495 102 0 204
19.875 41.775 3.99928 102 0 204
19.875 41.825 3.99303 102 0 204
19.875 41.875 3.98813 102 0 204
19.875 41.925 3.98507 102 0 204
19.875 41.975 3.98642 102 0 204
19.925 41.825 3.99739 102 0 204
19.925 41.875 3.99311 102 0 204
19.925 41.925 3.98924 102 0 204
19.925 41.975 3.98622 102 0 204
19.925 42.025 3.98849 102 0 204
19.975 41.825 3.99856 102 0 204
19.975 41.875 3.99454 102 0 204
19.975 41.925 3.99154 102 0 204
19.975 41.975 3.98426 102 0 204
21.775 41.725 3.99863 102 0 204
21.775 41.775 3.99861 102 0 204
21.775 41.825 3.98852 102 0 204
21.775 41.875 3.99172 102 0 204
21.775 41.925 3.99091 102 0 204
21.775 41.975 3.98678 102 0 204
21.775 42.025 3.99011 102 0 204
21.825 41.725 3.99845 102 0 204
21.825 41.775 3.99572 102 0 204
21.825 41.825 3.99315 102 0 204
21.825 41.875 3.98878 102 0 204
21.825 41.925 3.98297 102 0 204
21.825 41.975 3.98496 102 0 204
21.825 42.025 3.987 102 0 204
21.875 41.775 3.99376 102 0 204
21.875 41.825 3.99279 102 0 204
21.875 41.8691 3.975 102 0 204
21.868 41.875 3.975 102 0 204
21.875 41.875 3.97346 102 0 204
21.875 41.8918 3.975 102 0 204
21.875 41.925 3.98063 102 0 204
21.875 41.953 3.975 102 0 204
21.8633 41.975 3.975 102 0 204
21.875 41.975 3.97266 102 0 204
21.875 41.9793 3.975 102 0 204
21.925 41.775 3.99787 102 0 204
21.925 41.825 3.98698 102 0 204
21.8881 41.875 3.975 102 0 204
21.925 41.875 3.98377 102 0 204
21.925 41.925 3.98253 102 0 204
21.8825 41.975 3.975 102 0 204
21.925 41.975 3.99007 102 0 204
21.975 41.825 3.99229 102 0 204
21.975 41.9031 3.975 102 0 204
21.9515 41.925 3.975 102 0 204
21.975 41.925 3.97106 102 0 204
21.975 41.9408 3.975 102 0 204
21.9802 41.925 3.975 102 0 204
3 0 1 5
3 1 6 5
3 1 2 6
3 2 7 6
3 2 3 7
3 3 8 7
3 3 4 8
3 5 11 10
3 5 6 11
3 6 12 11
3 6 7 12
3 7 13 12
3 7 8 13
3 9 10 14
3 10 15 14
3 10 11 15
3 11 16 15
3 11 12 16
3 12 17 16
3 12 13 17
3 13 18 17
3 14 20 19
3 14 15 20
3 15 21 20
3 15 16 21
3 16 22 21
3 16 17 22
3 23 31 30
3 23 24 31
3 24 32 31
3 24 25 32
3 25 33 32
3 25 26 33
3 26 34 33
3 26 27 34
3 27 35 34
3 27 28 35
3 28 36 35
3 28 29 36
3 30 31 37
3 31 38 37
3 31 32 38
3 39 40 41
3 33 40 39
3 38 33 39
3 32 33 38
3 40 42 41
3 43 42 40
3 33 43 40
3 34 43 33
3 44 45 46
3 35 45 44
3 43 35 44
3 34 35 43
3 45 47 46
3 37 49 48
3 37 38 49
3 41 50 39
3 38 39 50
3 51 38 50
3 49 38 51
3 41 42 50
3 51 50 42
3 43 51 42
3 52 51 43
3 46 53 44
3 43 44 53
3 54 43 53
3 52 43 54
3 46 47 53
3 54 53 47
3 48 49 55
3 56 57 58
3 52 57 56
3 57 59 58
3 58 60 56
3 58 59 60
